<svg xmlns="http://www.w3.org/2000/svg" width="247" height="243" viewBox="0 0 247 243" fill="none">
    <path
        d="M89.5597 90.9574C86.23 94.1557 84.9604 99.1344 88.1375 102.977C91.1281 106.593 96.9144 107.36 100.651 104.478C109.667 97.5172 100.27 84.6752 90.5389 87.333C88.7374 87.8248 89.1846 90.3936 90.9649 90.4953C93.8114 90.6585 96.8572 90.7645 99.1293 92.759C101.571 94.8996 101.624 98.524 99.621 100.987C94.318 107.509 85.1066 97.9051 90.6767 92.0744C91.3804 91.3389 90.2952 90.2516 89.5597 90.9574Z"
        fill="#8AA9FC" />
    <path
        d="M182.434 101.977C183.655 106.511 185.001 110.996 186.398 115.478C186.735 116.557 187.754 116.894 188.681 116.265C192.324 113.789 195.972 111.356 199.422 108.616C200.088 108.088 199.939 107.026 199.285 106.577C195.243 103.802 189.783 99.7072 184.654 99.6776C183.348 99.6712 182.439 101.507 183.761 102.27C185.832 103.463 188.312 103.887 190.522 104.807C193.074 105.867 195.601 107.113 197.854 108.721C197.905 107.978 197.953 107.234 198.004 106.49C194.147 108.866 190.514 111.528 186.845 114.181C187.568 114.325 188.288 114.472 189.011 114.616C187.447 110.188 185.838 105.79 184.103 101.426C183.736 100.506 182.174 101.011 182.434 101.977Z"
        fill="#528AA3" />
    <path
        d="M208.018 125.991C213.434 123.396 218.978 120.412 223.86 116.911C225.653 115.624 223.887 113.115 221.997 114.104C216.778 116.836 211.694 120.368 207.039 123.969C206.104 124.691 206.791 126.578 208.018 125.991Z"
        fill="#EDC483" />
    <path
        d="M8.46551 142.547C7.33367 136.65 5.8585 130.529 3.71144 124.919C2.923 122.857 0.0468485 123.927 0.523717 126.006C1.83993 131.748 3.96157 137.564 6.26121 142.981C6.72326 144.068 8.72194 143.882 8.46551 142.547Z"
        fill="#E8947E" />
    <path
        d="M25.5145 90.3353C25.4127 90.2463 25.3131 90.1552 25.2114 90.0662C23.8697 88.8792 21.6676 88.644 20.362 90.0662C19.0436 91.5032 19.0903 93.4764 20.362 94.9134C20.4531 95.0152 20.5442 95.1169 20.6333 95.2187C21.8329 96.5751 24.3064 96.5349 25.5145 95.2187C26.7162 93.9088 26.96 91.6134 25.5145 90.3353Z"
        fill="#251A51" />
    <path
        d="M43.0029 138.483C43.2763 136.665 43.2254 134.937 44.2427 133.335C46.269 130.145 49.1473 130.944 51.9344 132.349C54.7746 133.78 57.4473 134.636 60.5354 133.301C65.3572 131.213 67.6208 123.941 63.0194 120.521C61.5294 119.412 60.0627 121.241 60.2619 122.642C60.5417 124.598 61.5125 126.752 59.8359 128.433C57.5956 130.681 54.9653 128.793 52.7292 127.784C50.313 126.695 47.7484 126.455 45.2559 127.462C40.9639 129.198 37.8525 135.014 41.2585 138.943C41.7396 139.496 42.8884 139.248 43.0029 138.483Z"
        fill="#6E3281" />
    <path
        d="M106.357 141.999C112.15 140.42 118.142 138.481 123.572 135.912C125.567 134.969 124.28 132.184 122.243 132.817C116.618 134.568 110.984 137.128 105.758 139.835C104.708 140.378 105.046 142.357 106.357 141.999Z"
        fill="#EDC483" />
    <path
        d="M77.6122 148.032C78.833 152.566 80.1789 157.05 81.5756 161.533C81.9127 162.612 82.9321 162.951 83.8584 162.322C87.5018 159.846 91.1473 157.411 94.6 154.67C95.2634 154.142 95.1171 153.081 94.4622 152.631C90.4203 149.857 84.9605 145.762 79.8313 145.732C78.5257 145.726 77.6164 147.561 78.939 148.324C81.0097 149.518 83.4896 149.942 85.7002 150.861C88.2521 151.921 90.7785 153.167 93.0315 154.776C93.0824 154.032 93.1312 153.288 93.1821 152.544C89.3246 154.92 85.6917 157.582 82.0229 160.236C82.7456 160.38 83.4663 160.526 84.189 160.67C82.6248 156.243 81.0161 151.845 79.2802 147.481C78.9136 146.559 77.3515 147.065 77.6122 148.032Z"
        fill="#EDE6F5" />
    <path
        d="M85.5796 193.411C91.5651 193.856 97.8578 194.032 103.835 193.443C106.031 193.227 105.761 190.23 103.629 190.147C97.7434 189.916 91.5756 190.431 85.7428 191.215C84.5728 191.372 84.2231 193.309 85.5796 193.411Z"
        fill="#6E3281" />
    <path
        d="M164.774 84.324C165.113 79.6548 165.45 74.9857 165.788 70.3165C169.457 69.2823 171.366 64.5863 169.902 61.066C168.437 57.5458 164.277 55.5688 160.503 56.1083C162.885 54.4862 164.261 52.9519 162.306 50.8351C160.35 48.7183 157.287 48.0318 154.407 47.9207C151.526 47.8096 148.614 48.1591 145.78 47.6321C143.271 47.1661 140.81 46.0172 138.277 46.3362C135.744 46.6553 133.323 49.5052 134.689 51.6632C131.036 51.1273 129.032 49.0804 125.786 50.8423C122.54 52.6042 120.911 57.6175 123.7 60.0372C121.857 60.9764 121.396 63.6435 122.432 65.4341C123.468 67.2247 125.591 68.1639 127.654 68.3126C129.717 68.4614 131.762 67.938 133.764 67.42"
        fill="#251A51" />
    <path
        d="M164.382 225.835C164.382 225.835 116.231 237.034 96.8896 217.694L103.812 171.497C105.914 158.219 104.661 132.669 114.831 123.605C116.799 121.85 118.692 120.977 118.692 120.977C125.826 117.532 138.518 115.672 150.702 115.625C165.504 115.568 180.739 126.761 184.627 141.045L168.606 178.52L164.382 225.835Z"
        fill="#528AA3" />
    <path
        d="M140.311 162.627C146.857 162.261 153.321 162.548 159.861 162.634C160.431 162.641 160.399 161.833 159.861 161.768C153.417 160.998 146.762 161.306 140.311 161.86C139.826 161.901 139.813 162.654 140.311 162.627Z"
        fill="#1A3066" />
    <path
        d="M169.629 125.907C147.516 127.904 162.638 160.509 168.306 170.382C168.621 170.932 169.469 170.437 169.157 169.883C163.524 159.91 148.448 129.569 169.7 126.447C170.003 126.402 169.937 125.879 169.629 125.907Z"
        fill="#1A3066" />
    <path
        d="M108.341 144.548C105.618 155.406 103.79 166.698 103.116 177.879C103.088 178.341 103.869 178.46 103.935 177.99C105.518 166.874 107.108 155.786 108.891 144.698C108.949 144.344 108.432 144.184 108.341 144.548Z"
        fill="#1A3066" />
    <path
        d="M158.766 92.9979L153.443 121.387C152.244 127.783 145.937 131.876 139.608 130.365C133.741 128.966 129.984 123.235 131.038 117.297L133.928 101.026L158.766 92.9979Z"
        fill="#F6AEA6" />
    <path
        d="M164.177 75.2377L163.441 84.9435C163.441 84.9435 171.693 86.0565 169.341 93.5827C166.99 101.109 161.344 97.8163 161.344 97.8163C161.344 97.8163 159.933 117.104 140.176 110.989C124.451 106.122 125.412 85.759 127.408 68.3998C128.183 61.6747 134.542 57.0522 141.186 58.3463L153.065 60.6602C159.931 61.9974 164.708 68.2635 164.177 75.2377Z"
        fill="#F6AEA6" />
    <path
        d="M165.718 89.5897C165.32 90.4876 164.922 91.3838 164.524 92.2818C164.829 91.7746 165.691 91.8534 166.006 92.3535C166.322 92.8536 166.137 93.558 165.705 93.9613C165.273 94.3646 164.655 94.5151 164.063 94.5277"
        stroke="#251A51" stroke-width="0.0896191" stroke-miterlimit="10" />
    <path
        d="M115.579 203.808C115.579 203.808 90.014 208.284 90.5141 211.6C91.0141 214.916 92.8101 218.26 92.8101 218.26L115.579 217.724V203.808Z"
        fill="#F6AEA6" />
    <path
        d="M160.402 146.8C160.402 146.8 181.97 188.347 171.26 190.559C136.028 197.838 115.578 203.807 115.578 203.807L113.782 217.49C114.307 219.558 185.064 217.768 193.445 208.263C199.361 201.55 207.226 186.039 190.493 152.466L185.408 141.045L160.402 146.8Z"
        fill="#F6AEA6" />
    <path
        d="M54.173 203.294C54.173 203.294 53.4601 188.466 56.2822 188.027C59.1044 187.588 64.6482 186.247 64.6482 186.247C64.6482 186.247 62.2136 172.517 64.2245 174.357C66.2353 176.196 70.6211 194.433 66.5151 204.504L54.173 203.294Z"
        fill="#F6AEA6" />
    <path
        d="M115.002 123.345L73.8571 166.777L59.457 208.604L66.0229 220.639C66.0229 220.639 76.9392 203.924 83.3907 187.429C91.5854 166.48 108.253 162.009 108.253 162.009L115.002 123.345Z"
        fill="#F6AEA6" />
    <path
        d="M125.763 118.494C107.012 124.468 101.283 143.548 74.8867 154.558L87.661 182.448L108.689 165.205L125.763 118.494Z"
        fill="#528AA3" />
    <path d="M156.392 141.044L170.017 172.705L200.75 167.095L180.046 131.437L155.533 141.044" fill="#528AA3" />
    <path
        d="M142.543 219.066L142.348 215.526L89.6968 212.305L72.0382 165.072L14.25 168.25L33.9644 219.328L142.543 219.066Z"
        fill="#9B9B9B" />
    <path
        d="M46.111 190.74C46.24 193.103 48.2618 194.911 50.6242 194.782C52.9866 194.651 54.7969 192.631 54.666 190.269C54.537 187.906 52.517 186.098 50.1546 186.227C47.7922 186.358 45.9819 188.378 46.111 190.74Z"
        fill="white" fill-opacity="0.41" />
    <path
        d="M44.3999 190.833C44.581 194.142 47.4111 196.676 50.7199 196.493C54.0286 196.312 56.5631 193.484 56.3802 190.175C56.1974 186.866 53.369 184.33 50.0603 184.513C46.7516 184.694 44.2171 187.524 44.3999 190.833Z"
        fill="white" fill-opacity="0.41" />
    <path
        d="M140.324 76.0389C140.032 80.6919 139.742 85.3467 139.449 90.0015C139.385 91.0393 139.336 92.1667 139.74 93.0396C140.143 93.9125 141.195 94.2101 141.586 93.3246"
        stroke="#251A51" stroke-width="0.896191" stroke-miterlimit="10" />
    <path
        d="M151.259 107.847C148.504 109.756 145.14 110.769 141.79 110.699C138.44 110.629 135.119 109.475 132.448 107.451"
        stroke="#251A51" stroke-width="0.0896191" stroke-miterlimit="10" />
    <path
        d="M147.038 95.4313C146.278 97.0386 145.62 98.1396 143.915 98.6881C142.211 99.2365 140.656 98.7121 139.192 97.7069"
        stroke="#251A51" stroke-width="1.79238" stroke-miterlimit="10" />
    <path d="M151.549 77.0512C150.513 76.0689 148.963 75.6621 147.579 76.008" stroke="#251A51" stroke-width="0.896191"
        stroke-miterlimit="10" />
    <path d="M135.014 73.3681C133.666 72.5813 131.963 72.4325 130.499 72.9738" stroke="#251A51" stroke-width="0.896191"
        stroke-miterlimit="10" />
    <path
        d="M163.442 84.9471C157.927 79.5718 156.307 70.6135 154.81 63.0586C149.703 66.7778 142.679 67.6919 136.789 65.4048C134.941 67.5772 132.769 69.4753 130.369 71.0149C129.686 71.4523 128.878 71.8771 128.102 71.6423C127.177 71.3627 126.765 70.3016 126.544 69.3606C125.84 66.3476 125.813 63.1231 126.863 60.2123C127.913 57.3014 130.118 54.7455 133.004 53.6288C136.089 52.4351 139.56 52.9549 142.762 53.7848C147.585 55.0359 152.234 56.9573 156.534 59.4756C160.754 61.9473 164.808 65.2184 166.598 69.7692C168.389 74.3201 168.38 83.1655 164.064 85.4669"
        fill="#251A51" />
    <path d="M150.454 82.1971C150.382 83.1901 150.312 84.1848 150.24 85.1778" stroke="#251A51" stroke-width="1.79237"
        stroke-miterlimit="10" />
    <path d="M134.589 80.1697C134.518 81.1627 134.448 82.1575 134.376 83.1505" stroke="#251A51" stroke-width="1.79237"
        stroke-miterlimit="10" />
    <path
        d="M182.322 46.7931C181.619 48.1574 183.919 83.4032 183.919 83.4032L201.274 81.9615L199.25 91.2669L207.731 81.7038L224.714 79.7411L223.681 45.5779L182.322 46.7931Z"
        fill="#386377" />
    <path
        d="M191.819 62.5642L195.469 75.2499L200.574 74.2557L200.077 71.702L201.526 70.8311L204.262 73.5358L212.912 71.8511L214.033 68.5407L211.572 67.9902L214.751 66.9296L214.059 63.3835L211.31 63.6247L215.084 62.5955L214.227 58.1988L205.435 59.9129C205.435 59.9129 206.004 53.7652 203.406 51.7693L201.421 52.156C201.421 52.156 202.091 54.0874 202.029 55.2768C201.966 56.4662 200.237 61.9548 200.237 61.9548L197.54 63.216L196.897 61.4282L191.819 62.5642Z"
        fill="white" />
    <path d="M0.94043 218.635L232.845 215.74L246.427 222.872C246.427 222.872 68.4001 271.735 0.94043 218.635Z"
        fill="#84818B" fill-opacity="0.06" />
</svg>