<svg xmlns="http://www.w3.org/2000/svg" width="20" height="20" viewBox="0 0 20 20" fill="none">
    <path
        d="M7.49988 13.5L4.58322 10.5833C4.50695 10.5061 4.41611 10.4448 4.31598 10.403C4.21585 10.3612 4.10841 10.3396 3.99988 10.3396C3.89136 10.3396 3.78392 10.3612 3.68379 10.403C3.58365 10.4448 3.49282 10.5061 3.41655 10.5833C3.33935 10.6596 3.27806 10.7504 3.23623 10.8506C3.19439 10.9507 3.17285 11.0581 3.17285 11.1667C3.17285 11.2752 3.19439 11.3826 3.23623 11.4828C3.27806 11.5829 3.33935 11.6737 3.41655 11.75L6.90822 15.2417C7.23322 15.5667 7.75822 15.5667 8.08322 15.2417L16.9166 6.41667C16.9938 6.3404 17.055 6.24956 17.0969 6.14943C17.1387 6.0493 17.1603 5.94186 17.1603 5.83333C17.1603 5.72481 17.1387 5.61737 17.0969 5.51724C17.055 5.4171 16.9938 5.32627 16.9166 5.25C16.8403 5.1728 16.7494 5.11151 16.6493 5.06968C16.5492 5.02784 16.4417 5.0063 16.3332 5.0063C16.2247 5.0063 16.1173 5.02784 16.0171 5.06968C15.917 5.11151 15.8262 5.1728 15.7499 5.25L7.49988 13.5Z"
        fill="#444444" />
</svg>